<?xml version="1.0" encoding="utf-8"?>
<!-- Generator: Adobe Illustrator 27.1.1, SVG Export Plug-In . SVG Version: 6.00 Build 0)  -->
<svg version="1.1" id="Layer_1" xmlns="http://www.w3.org/2000/svg" xmlns:xlink="http://www.w3.org/1999/xlink" x="0px" y="0px"
	 viewBox="0 0 100 100" style="enable-background:new 0 0 100 100;" xml:space="preserve">
<style type="text/css">
	.st0{fill:#152E4A;}
	.st1{fill:#FFFFFF;}
	.st2{fill:#82C7E6;}
</style>
<circle class="st0" cx="50" cy="50" r="50"/>
<g>
	<g>
		<path class="st1" d="M41.4,77.2c-6.3,0-11.4-5.1-11.4-11.4c0-2.5,0.8-4.9,2.3-6.8c0,0,0,0,0,0c3.9-5.4,3.9-12.5,0-17.9
			c0,0,0,0,0,0c-1.5-2-2.3-4.4-2.3-6.8c0-6.3,5.1-11.4,11.4-11.4c6.3,0,11.4,5.1,11.4,11.4c0,2.5-0.8,4.9-2.3,6.8c0,0,0,0,0,0
			c-3.9,5.3-3.9,12.5,0,17.9c0,0,0,0,0,0c1.5,2,2.3,4.3,2.3,6.8C52.8,72.1,47.7,77.2,41.4,77.2z"/>
	</g>
	<circle class="st2" cx="65.8" cy="50" r="11.4"/>
</g>
</svg>
