<?xml version="1.0" encoding="utf-8"?>
<!-- Generator: Adobe Illustrator 27.1.1, SVG Export Plug-In . SVG Version: 6.00 Build 0)  -->
<svg version="1.1" id="Layer_1" xmlns="http://www.w3.org/2000/svg" xmlns:xlink="http://www.w3.org/1999/xlink" x="0px" y="0px"
	 viewBox="0 0 250 65.6" style="enable-background:new 0 0 250 65.6;" xml:space="preserve">
<style type="text/css">
	.st0{fill:#152E4A;}
	.st1{fill:#FFFFFF;}
	.st2{fill:#82C7E6;}
</style>
<circle class="st0" cx="32.8" cy="32.8" r="32.8"/>
<g>
	<path class="st0" d="M77,51.5V15.8h12.5c4.3,0,7.6,0.8,9.9,2.5c2.2,1.7,3.4,4.1,3.4,7.3c0,1.7-0.4,3.3-1.3,4.6
		c-0.2,0.3-0.4,0.6-0.7,0.9c-0.8,0.9-0.7,2.9,0.2,3.7c0.4,0.3,0.8,0.7,1.1,1.2c1.1,1.4,1.6,3.1,1.6,5.1c0,3.4-1.1,6-3.3,7.8
		c-2.2,1.8-5.3,2.7-9.4,2.7H77z M94.3,40.6c0-1.1-0.3-2.1-1-3c0,0,0,0,0,0c-1.7-2.3-1.7-5.5,0-7.8c0,0,0,0,0,0c0.7-0.9,1-1.9,1-3
		c0-2.8-2.2-5-5-5c-2.8,0-5,2.2-5,5c0,1.1,0.3,2.1,1,3c0,0,0,0,0,0c1.7,2.3,1.7,5.5,0,7.8c0,0,0,0,0,0c-0.7,0.9-1,1.9-1,3
		c0,2.8,2.2,5,5,5C92,45.6,94.3,43.4,94.3,40.6z"/>
</g>
<g>
	<path class="st0" d="M119.4,52.2c-3.9,0-7.1-1.2-9.5-3.6c-2.4-2.4-3.7-5.6-3.7-9.5v-0.7c0-2.7,0.5-5,1.5-7.1c1-2.1,2.5-3.7,4.4-4.9
		c1.9-1.1,4-1.7,6.5-1.7c3.6,0,6.5,1.1,8.6,3.4c2.1,2.3,3.1,5.5,3.1,9.7v2.9h-16.9c0.2,1.7,0.9,3.1,2.1,4.2c1.2,1,2.6,1.6,4.4,1.6
		c2.7,0,4.9-1,6.4-3l3.5,3.9c-1.1,1.5-2.5,2.7-4.3,3.5C123.6,51.8,121.6,52.2,119.4,52.2z M118.6,30.4c-1.4,0-2.5,0.5-3.4,1.4
		c-0.9,1-1.4,2.3-1.7,4.1h9.9v-0.6c0-1.6-0.5-2.8-1.3-3.7C121.2,30.9,120.1,30.4,118.6,30.4z"/>
	<path class="st0" d="M148.7,44.4c0-0.9-0.4-1.5-1.3-2c-0.9-0.5-2.2-0.9-4.1-1.3c-6.3-1.3-9.5-4-9.5-8c0-2.4,1-4.3,2.9-5.9
		c2-1.6,4.5-2.4,7.7-2.4c3.4,0,6.1,0.8,8.1,2.4c2,1.6,3,3.6,3,6.2h-7.1c0-1-0.3-1.9-1-2.5c-0.7-0.7-1.7-1-3.1-1
		c-1.2,0-2.1,0.3-2.8,0.8c-0.7,0.5-1,1.2-1,2.1c0,0.8,0.4,1.4,1.1,1.9c0.7,0.5,2,0.9,3.8,1.3c1.8,0.4,3.3,0.7,4.5,1.2
		c3.7,1.4,5.6,3.8,5.6,7.1c0,2.4-1,4.4-3.1,5.9c-2.1,1.5-4.8,2.2-8,2.2c-2.2,0-4.2-0.4-5.9-1.2c-1.7-0.8-3.1-1.9-4.1-3.3
		c-1-1.4-1.5-2.9-1.5-4.5h6.7c0.1,1.3,0.5,2.2,1.4,2.9c0.9,0.7,2,1,3.5,1c1.4,0,2.4-0.3,3.1-0.8C148.3,45.9,148.7,45.2,148.7,44.4z"
		/>
	<path class="st0" d="M175.5,51.7c-0.3-0.6-0.6-1.4-0.7-2.4c-1.7,1.9-3.9,2.9-6.7,2.9c-2.6,0-4.8-0.8-6.5-2.3
		c-1.7-1.5-2.6-3.4-2.6-5.7c0-2.8,1-5,3.1-6.5c2.1-1.5,5.1-2.3,9-2.3h3.3V34c0-1.2-0.3-2.2-0.9-2.9c-0.6-0.7-1.6-1.1-3-1.1
		c-1.2,0-2.1,0.3-2.8,0.9c-0.7,0.6-1,1.4-1,2.4h-7.1c0-1.5,0.5-3,1.4-4.3c0.9-1.3,2.3-2.3,4-3.1c1.7-0.7,3.7-1.1,5.8-1.1
		c3.3,0,5.9,0.8,7.8,2.5c1.9,1.6,2.9,4,2.9,6.9v11.5c0,2.5,0.4,4.4,1.1,5.7v0.4H175.5z M169.6,46.8c1,0,2-0.2,2.9-0.7
		c0.9-0.5,1.5-1.1,2-1.9v-4.6h-2.6c-3.5,0-5.4,1.2-5.7,3.7l0,0.4c0,0.9,0.3,1.6,0.9,2.2C167.7,46.5,168.6,46.8,169.6,46.8z"/>
	<path class="st0" d="M193.6,25.2l0.2,3.1c1.9-2.4,4.4-3.6,7.6-3.6c2.8,0,4.9,0.8,6.3,2.5c1.4,1.7,2.1,4.1,2.1,7.4v17.1h-7.1v-17
		c0-1.5-0.3-2.6-1-3.3c-0.7-0.7-1.7-1-3.3-1c-2,0-3.5,0.9-4.5,2.5v18.7h-7.1V25.2H193.6z"/>
	<path class="st0" d="M223.3,46h13v5.7h-22v-4.3l12.5-16.5h-12.1v-5.7h21.3v4.2L223.3,46z"/>
</g>
<g>
	<g>
		<path class="st1" d="M27.1,50.6c-4.1,0-7.5-3.4-7.5-7.5c0-1.6,0.5-3.2,1.5-4.5c0,0,0,0,0,0c2.6-3.5,2.6-8.2,0-11.7c0,0,0,0,0,0
			c-1-1.3-1.5-2.9-1.5-4.5c0-4.1,3.4-7.5,7.5-7.5c4.1,0,7.5,3.4,7.5,7.5c0,1.6-0.5,3.2-1.5,4.5c0,0,0,0,0,0c-2.6,3.5-2.6,8.2,0,11.7
			c0,0,0,0,0,0c1,1.3,1.5,2.9,1.5,4.5C34.6,47.3,31.3,50.6,27.1,50.6z"/>
	</g>
	<circle class="st2" cx="43.2" cy="32.8" r="7.5"/>
</g>
<circle class="st2" cx="245" cy="47" r="5"/>
</svg>
